<svg width="40" height="40" viewBox="0 0 40 40" fill="none" xmlns="http://www.w3.org/2000/svg"><path d="M34.7128 24.9892L9.6967 20.3638L6.92126 35.3747L31.9374 40L34.7128 24.9892Z" fill="#4C2F92"/><path d="M12.4373 18.6562C12.506 18.2845 12.8625 18.0393 13.2341 18.108L19.7086 19.3051C20.0803 19.3738 20.3255 19.7303 20.2568 20.102L19.8609 22.2434L12.0443 20.7982L12.4402 18.6567L12.4373 18.6562ZM32.3674 24.5558L32.7634 22.4144C32.8321 22.0427 32.5869 21.6862 32.2152 21.6175L25.7407 20.4204C25.369 20.3517 25.0125 20.5969 24.9438 20.9686L24.5479 23.11L32.3674 24.5558Z" fill="#4C2F92"/><path d="M31.3589 2.60958L6 4.64019L7.21846 19.8567L32.5774 17.8261L31.3589 2.60958Z" fill="#00A3DA"/><path d="M8.2029 2.27929C8.17273 1.90254 8.4533 1.57313 8.83005 1.54296L15.3933 1.01741C15.77 0.987242 16.0995 1.26781 16.1296 1.64456L16.3035 3.81536L8.37971 4.44986L8.20589 2.27905L8.2029 2.27929ZM28.9814 2.80018L28.8076 0.629372C28.7774 0.252621 28.448 -0.0279464 28.0713 0.00222189L21.508 0.527773C21.1313 0.557942 20.8507 0.887353 20.8809 1.2641L21.0547 3.43491L28.9814 2.80018Z" fill="#00A3DA"/></svg>
